<svg width="319" height="329" viewBox="0 0 319 329" fill="none" xmlns="http://www.w3.org/2000/svg">
<path d="M311.3 79.0998C320.8 122.4 320.8 166.4 311.3 209.7L311.2 210.1C303.5 241.1 268.9 274.4 237.2 281.3L236.8 281.4C211.1 286.3 185.2 288.7 159.4 288.7C151.8 288.7 144.2 288.5 136.6 288L101.5 324.5C92.8004 333.5 77.5004 327.4 77.5004 314.9V280.3C46.9004 271.6 14.9004 239.8 7.50037 210.1L7.40039 209.7C-2.09961 166.4 -2.09961 122.4 7.40039 79.0998L7.50037 78.6998C15.2004 47.6998 49.8004 14.3998 81.5004 7.49981L81.9004 7.39981C133.3 -2.4002 185.4 -2.4002 236.8 7.39981L237.2 7.49981C269 14.3998 303.6 47.6998 311.2 78.6998L311.3 79.0998ZM283.5 203.4C292 164.2 292 124.5 283.5 85.3998C278.4 65.1998 252.1 39.9998 231.2 35.2998C183.5 26.1998 135.1 26.1998 87.4004 35.2998C66.5004 39.8998 40.3003 65.0998 35.1003 85.3998C26.6003 124.6 26.6003 164.3 35.1003 203.4C40.2003 223.6 66.5004 248.8 87.4004 253.5C88.3004 253.7 89.0004 254.5 89.0004 255.4V312.8C89.0004 315.7 92.5004 317.1 94.5004 315L121.8 287C121.8 287 143.5 264.7 147.4 260.7C147.8 260.3 148.3 260.1 148.9 260.1C176.4 260.9 204 258.6 231.3 253.4C252.2 248.8 278.4 223.6 283.5 203.4Z" fill="white"/>
<path d="M163.8 62.8996C165.3 62.8996 167 62.9996 168.6 62.9996C167.3 62.9996 165.7 62.9996 163.8 62.8996ZM169.4 63.0996C169.8 63.0996 170.2 63.0996 170.5 63.0996C170.2 63.0996 169.8 63.0996 169.4 63.0996ZM172 63.0996C171.8 63.0996 171.5 63.0996 171.3 63.0996C171.6 63.0996 171.8 63.0996 172 63.0996ZM172.2 63.0996C172.4 63.0996 172.5 63.0996 172.7 63.0996C172.5 63.1996 172.3 63.0996 172.2 63.0996ZM173.4 63.1996C173.2 63.1996 173.1 63.1996 172.9 63.1996C173 63.1996 173.2 63.1996 173.4 63.1996ZM174.8 63.1996C175 63.1996 175.1 63.1996 175.3 63.1996C175.1 63.1996 174.9 63.1996 174.8 63.1996ZM193 137.7C193.1 137.7 193.4 137.7 193.9 137.7C194 137.7 194 137.7 194.1 137.7C194.2 137.7 194.2 137.7 194.2 137.7C194.3 137.7 194.4 137.7 194.4 137.7C195.8 137.5 197.1 136.5 197.6 134.6C197.9 133.4 197.7 132.1 197.6 130.9C196.1 113.3 185.4 105.6 170.5 104.5C168.1 104.3 166 106 165.6 108.2C165.2 110.6 166.6 112.7 169.2 113.3C171.6 113.9 174 113.7 176.4 114.4C178.3 114.9 180 115.8 181.6 116.9C184.9 119.3 187 123 188 126.9C188.5 128.9 188.7 131 188.9 133.1C189.2 135.9 190.8 137.6 193.6 137.8C193.3 137.7 193.1 137.7 193 137.7ZM161.7 62.7996C161.5 62.7996 161.4 62.7996 161.2 62.7996C161 62.7996 160.8 62.7996 160.6 62.7996C160.4 62.7996 160.3 62.7996 160.1 62.7996C159.9 62.7996 159.6 62.7996 159.4 62.7996C158.7 62.7996 157.9 62.7996 157.2 62.7996C154.5 62.8996 152.1 65.1996 152.6 68.0996C153.2 71.4996 156.8 71.6996 159.6 71.9996C163.9 72.4996 168.3 72.6996 172.6 73.3996C201.1 78.4996 224 102.2 228 130.9C228.8 136.3 229 141.8 229.4 147.3C229.6 150.1 231 152.6 234.1 152.6C237.1 152.6 238.7 149.9 238.4 147.2C237.9 140.6 237.5 134 236.3 127.5C229.6 89.8996 198.6 64.4996 160.7 62.8996C160.8 62.8996 161 62.8996 161.2 62.8996C161.4 62.7996 161.5 62.7996 161.7 62.7996ZM283.5 85.2996C292 124.5 292 164.2 283.5 203.3C278.4 223.5 252.1 248.7 231.2 253.4C203.9 258.6 176.3 260.8 148.8 260.1C148.3 260.1 147.7 260.3 147.3 260.7C143.4 264.7 121.7 287 121.7 287L94.4 315C92.4 317.1 88.9 315.7 88.9 312.8V255.4C88.9 254.5 88.2 253.6 87.3 253.5C66.4 248.9 40.2 223.7 35 203.4C26.5 164.2 26.5 124.5 35 85.3996C40.1 65.1996 66.4 39.9996 87.3 35.2996C135 26.1996 183.4 26.1996 231.1 35.2996C252.2 39.8996 278.4 65.0996 283.5 85.2996ZM232 206.3C234.3 201.5 232.9 196.8 228.8 193.2C224.6 189.5 220 186.3 215.5 183.1C210.9 179.8 206.2 176.5 201.3 173.4C196.5 170.4 190.7 170.4 186.3 174.1C181.7 177.8 179.6 185 173.1 185.8C169.2 186.3 165.8 184.6 162.4 183.2C141.2 174.4 128.3 158 120.6 137C119.6 134.3 119.7 131.3 121.2 128.8C122 127.4 123.2 126.4 124.4 125.4C125.8 124.2 127.2 123 128.7 122C134.9 117.8 135.9 110.2 132.4 104C126.8 93.8996 119.9 84.7996 112.4 76.0996C108.9 72.0996 104.3 70.7996 99.5 72.9996C93.4 75.8996 87.8 79.8996 83.4 85.0996C78.8 90.5996 74.3 98.1996 77.3 105.5C80.6 113.5 83.8 121.6 87.6 129.4C95.7 145.8 105.2 161.3 117.4 175C138.9 199.2 165.9 214.9 195.4 227.1C198.2 228.3 201.3 228.9 204.5 229.9C207.3 229 210.2 228.6 212.7 227.3C221.8 222.5 227.8 215.2 232 206.3ZM217.9 138.6C217.9 138.4 217.9 138.2 217.9 138.1C217.9 138 217.9 138 217.9 137.9C217.8 135.6 217.7 133.8 217.5 131.9C217.4 131.1 217.2 130.3 217.1 129.5C214.4 111.7 205.3 98.2996 189.3 89.8996C181.4 85.6996 172.9 83.7996 164.1 83.2996C161.4 83.1996 159.6 84.8996 159.5 87.3996C159.4 89.9996 160.8 91.6996 163.5 92.0996C165.7 92.3996 167.9 92.5996 170.1 92.9996C175.1 93.7996 180.1 95.1996 184.6 97.4996C192.2 101.2 198.6 107.3 202.9 114.6C207 121.7 208.8 129.8 208.8 138C208.8 139.2 208.9 140.6 209.3 141.7C210.6 145.6 216.5 145.1 217.5 141.2C217.8 140.3 217.9 139.2 217.9 138.6C217.9 138.6 217.9 138.7 217.9 138.6Z" fill="#7D3DAF"/>
<path d="M238.401 147.2C238.601 150 237.001 152.6 234.101 152.6C231.001 152.6 229.601 150.1 229.401 147.3C229.001 141.8 228.701 136.3 228.001 130.9C224.001 102.2 201.101 78.4998 172.601 73.3998C168.301 72.5998 163.901 72.3998 159.601 71.9998C156.801 71.6998 153.201 71.4998 152.601 68.0998C152.101 65.1998 154.501 62.8998 157.201 62.7998C157.901 62.7998 158.701 62.7998 159.401 62.7998C159.601 62.7998 159.901 62.7998 160.101 62.7998C160.301 62.7998 160.501 62.7998 160.701 62.7998C198.601 64.3998 229.601 89.7998 236.301 127.4C237.501 134 237.901 140.6 238.401 147.2Z" fill="white"/>
<path d="M228.8 193.2C232.8 196.8 234.2 201.4 232 206.3C227.8 215.2 221.8 222.5 213 227.2C210.5 228.5 207.6 229 204.8 229.8C207.6 228.9 201.6 228.8 204.8 229.8C201.6 228.8 198.5 228.2 195.7 227C166.3 214.8 139.2 199 117.7 174.9C105.5 161.2 96.0003 145.7 87.9003 129.3C84.1003 121.5 80.8003 113.4 77.6003 105.4C74.6003 98.0997 79.0003 90.4997 83.7003 84.9997C88.1003 79.7997 93.7003 75.8997 99.8003 72.8997C104.5 70.5997 109.2 71.8997 112.7 75.9997C120.2 84.6997 127.1 93.7997 132.7 103.9C136.1 110.1 135.2 117.7 129 121.9C127.5 122.9 126.1 124.1 124.7 125.3C123.5 126.3 122.3 127.3 121.5 128.7C120 131.2 119.9 134.2 120.9 136.9C128.6 158 141.5 174.3 162.7 183.1C166.1 184.5 169.5 186.2 173.4 185.7C179.9 184.9 182.1 177.8 186.6 174C191.1 170.3 196.8 170.3 201.6 173.3C206.4 176.4 211.1 179.6 215.8 183C220.1 186.3 224.6 189.5 228.8 193.2Z" fill="white"/>
<path d="M217.9 138.1C217.9 138.2 217.9 138.4 217.9 138.6C217.9 138.6 217.9 138.6 217.9 138.7C217.8 138.7 217.8 136.8 217.9 138C217.9 138 217.9 138.1 217.9 138.1Z" fill="white"/>
<path d="M217.9 137.9C217.8 136.7 217.9 138.6 217.9 138.6C217.8 139.1 217.8 140.2 217.5 141.2C216.5 145.1 210.6 145.6 209.3 141.7C208.9 140.5 208.8 139.2 208.8 138C208.8 129.9 207 121.7 202.9 114.6C198.7 107.3 192.2 101.2 184.6 97.4996C180 95.2996 175.1 93.8996 170.1 92.9996C167.9 92.5996 165.7 92.3996 163.5 92.0996C160.8 91.6996 159.4 89.9996 159.5 87.3996C159.6 84.8996 161.4 83.1996 164.1 83.2996C172.9 83.7996 181.5 85.6996 189.3 89.8996C205.3 98.3996 214.4 111.7 217.1 129.5C217.2 130.3 217.4 131.1 217.5 131.9C217.7 133.8 217.8 135.6 217.9 137.9Z" fill="white"/>
<path d="M204.8 229.8C201.6 228.9 207.6 229 204.8 229.8V229.8Z" fill="white"/>
<path d="M197.5 130.8C197.6 132 197.7 133.4 197.5 134.5C197.1 136.4 195.7 137.4 194.3 137.6C194.2 137.6 193.8 137.6 193.5 137.6C190.6 137.5 189.1 135.7 188.8 132.9C188.6 130.8 188.4 128.7 187.9 126.7C186.9 122.8 184.8 119.1 181.5 116.7C179.9 115.6 178.2 114.7 176.3 114.2C173.9 113.5 171.5 113.7 169.1 113.1C166.5 112.5 165.1 110.4 165.5 108C165.9 105.8 168 104.1 170.4 104.3C185.3 105.5 196 113.2 197.5 130.8Z" fill="white"/>
<path d="M172.2 63.0996C172.4 63.0996 172.6 63.0996 172.7 63.0996C172.5 63.1996 172.3 63.1996 172.2 63.0996Z" fill="white"/>
<path d="M163.801 62.8999C165.601 62.9999 167.201 62.9999 168.601 62.9999C167.001 62.9999 165.301 62.9999 163.801 62.8999Z" fill="white"/>
</svg>
