<svg width="320" height="320" viewBox="0 0 320 320" fill="none" xmlns="http://www.w3.org/2000/svg">
<path fill-rule="evenodd" clip-rule="evenodd" d="M0.900024 159.5C0.900024 71.6998 72.3 0.299805 160.1 0.299805C247.9 0.299805 319.3 71.6998 319.3 159.5C319.3 247.3 247.9 318.7 160.1 318.7C132.7 318.7 106 311.7 82.3 298.4L0.5 319.4L22.8 240.1C8.49999 215.7 0.900024 188 0.900024 159.5ZM91.3 272.4C112 285 135.7 291.7 160.1 291.7C233 291.7 292.3 232.4 292.3 159.5C292.3 86.5998 233 27.2998 160.1 27.2998C87.2 27.2998 27.9 86.5998 27.9 159.5C27.9 184.9 35.1 209.6 48.8 230.8L52.1 235.9L39.2 281.6L86.4 269.4L91.3 272.4Z" fill="white"/>
<path fill-rule="evenodd" clip-rule="evenodd" d="M97.3004 167.9C112 187.9 139.3 219.9 187.6 233.6C203.2 238 215.4 235 224.9 229C232.4 224.2 237.5 216.5 239.4 207.8L241 200.1C241.5 197.7 240.3 195.2 238 194.1L203.2 178C200.9 177 198.2 177.6 196.7 179.6L183 197.4C182 198.7 180.2 199.3 178.6 198.7C169.2 195.4 137.8 182.2 120.5 149C119.7 147.6 119.9 145.8 121 144.6L134.1 129.5C135.4 127.9 135.8 125.8 135 123.9L120 88.5997C119.2 86.6997 117.4 85.4997 115.4 85.3997L105.1 84.7997C101.9 84.5997 98.7004 85.6997 96.2004 87.7997C91.2004 92.1997 83.2004 100.6 80.7004 111.5C77.0004 127.9 82.7004 147.9 97.3004 167.9ZM160.1 291.6C135.8 291.6 112 284.9 91.3004 272.3L86.4004 269.3L39.2004 281.5L52.1003 235.8L48.8004 230.7C35.1004 209.4 27.9004 184.8 27.9004 159.4C27.9004 86.4997 87.2003 27.1997 160.1 27.1997C233 27.1997 292.3 86.4997 292.3 159.4C292.2 232.4 232.9 291.6 160.1 291.6Z" fill="#1BD741"/>
<path d="M120.6 149C137.9 182.2 169.3 195.4 178.7 198.7C180.3 199.3 182.1 198.7 183.1 197.4L196.8 179.6C198.3 177.6 201 177 203.3 178L238.2 194.1C240.5 195.1 241.7 197.6 241.2 200.1L239.6 207.8C237.7 216.5 232.6 224.2 225.1 229C215.6 235 203.4 238 187.8 233.6C139.5 219.9 112.1 187.9 97.5004 167.9C82.8004 147.9 77.2004 127.9 80.8004 111.6C83.3004 100.6 91.3004 92.1997 96.3004 87.8997C98.7004 85.7997 101.9 84.6997 105.2 84.8997L115.5 85.4997C117.5 85.5997 119.3 86.8997 120.1 88.6997L135.2 123.9C136 125.8 135.7 127.9 134.3 129.5L121.2 144.6C120 145.8 119.8 147.6 120.6 149Z" fill="white"/>
</svg>
